# xmcd
#
# Track frame offsets:
#	150
#	23177
#	52664
#	71815
#	92609
#	113847
#	141727
#	166619
#	189233
#	211977
#	234606
#	249605
#
# Disc length: 3605 seconds
#
# Revision: 1
# Processed by: cddbd v1.5.1PL0 Copyright (c) Steve Scherf et al.
# Submitted via: EasyCDDAExtractor 7.0.6.1
#
DISCID=a10e130c
DTITLE=Taj Mahal and Toumane Diabate - Kulanjan
DYEAR=1900
DGENRE=Blues
TTITLE0=Queen Bee
TTITLE1=Tunkaranke
TTITLE2=Ol' Georgie Buck
TTITLE3=Kulanjan
TTITLE4=Fanta
TTITLE5=Guede Man Na
TTITLE6=Catfish Blues
TTITLE7=Kan Ben
TTITLE8=Take This Hammer
TTITLE9=Mississippi Mali Blues
TTITLE10=Atlanta Kaira
TTITLE11=Sahara
EXTD=
EXTT0=
EXTT1=
EXTT2=
EXTT3=
EXTT4=
EXTT5=
EXTT6=
EXTT7=
EXTT8=
EXTT9=
EXTT10=
EXTT11=
PLAYORDER=
